M48
;Layer_Color=9474304
;FILE_FORMAT=4:3
METRIC,LZ
;TYPE=PLATED
T1F00S00C0.300
T3F00S00C0.900
T4F00S00C1.100
;TYPE=NON_PLATED
T5F00S00C3.200
%
T01
X00243Y0008926
X0026904Y0009563
X00268Y00065
X00343Y0008926
T03
X0013645Y0002
X0016185Y0002
X0018725
X0021265Y0002
X0023805Y0002
X0026345Y0002
T04
X0016Y0013
X002
X0024
X0028
X0032
X0036Y0013
X0012Y0013
X0008
X0004
T05
X002Y0023
M30
