G04 Layer_Physical_Order=1*
G04 Layer_Color=16776960*
%FSLAX43Y43*%
%MOMM*%
G71*
G01*
G75*
%ADD10C,1.700*%
%ADD11R,1.700X1.700*%
%ADD12C,2.000*%
%ADD13R,2.000X2.000*%
G04:AMPARAMS|DCode=14|XSize=3.5mm|YSize=2mm|CornerRadius=0.5mm|HoleSize=0mm|Usage=FLASHONLY|Rotation=180.000|XOffset=0mm|YOffset=0mm|HoleType=Round|Shape=RoundedRectangle|*
%AMROUNDEDRECTD14*
21,1,3.500,1.000,0,0,180.0*
21,1,2.500,2.000,0,0,180.0*
1,1,1.000,-1.250,0.500*
1,1,1.000,1.250,0.500*
1,1,1.000,1.250,-0.500*
1,1,1.000,-1.250,-0.500*
%
%ADD14ROUNDEDRECTD14*%
%ADD15C,0.700*%
G36*
X39745Y6000D02*
Y255D01*
X255D01*
Y19800D01*
X39745D01*
Y6000D01*
D02*
G37*
%LPC*%
G36*
X27195Y3054D02*
X26845D01*
Y2500D01*
X27399D01*
Y2850D01*
X27383Y2928D01*
X27339Y2994D01*
X27273Y3038D01*
X27195Y3054D01*
D02*
G37*
G36*
X25845D02*
X25495D01*
X25417Y3038D01*
X25351Y2994D01*
X25307Y2928D01*
X25291Y2850D01*
Y2500D01*
X25845D01*
Y3054D01*
D02*
G37*
G36*
X27399Y1500D02*
X26845D01*
Y946D01*
X27195D01*
X27273Y962D01*
X27339Y1006D01*
X27383Y1072D01*
X27399Y1150D01*
Y1500D01*
D02*
G37*
G36*
X12000Y14311D02*
X11661Y14267D01*
X11344Y14136D01*
X11073Y13927D01*
X10864Y13656D01*
X10733Y13339D01*
X10689Y13000D01*
X10733Y12661D01*
X10864Y12344D01*
X11073Y12073D01*
X11344Y11864D01*
X11661Y11733D01*
X12000Y11689D01*
X12339Y11733D01*
X12656Y11864D01*
X12927Y12073D01*
X13136Y12344D01*
X13267Y12661D01*
X13311Y13000D01*
X13267Y13339D01*
X13136Y13656D01*
X12927Y13927D01*
X12656Y14136D01*
X12339Y14267D01*
X12000Y14311D01*
D02*
G37*
G36*
X8000D02*
X7661Y14267D01*
X7344Y14136D01*
X7073Y13927D01*
X6864Y13656D01*
X6733Y13339D01*
X6689Y13000D01*
X6733Y12661D01*
X6864Y12344D01*
X7073Y12073D01*
X7344Y11864D01*
X7661Y11733D01*
X8000Y11689D01*
X8339Y11733D01*
X8656Y11864D01*
X8927Y12073D01*
X9136Y12344D01*
X9267Y12661D01*
X9311Y13000D01*
X9267Y13339D01*
X9136Y13656D01*
X8927Y13927D01*
X8656Y14136D01*
X8339Y14267D01*
X8000Y14311D01*
D02*
G37*
G36*
X4000D02*
X3661Y14267D01*
X3344Y14136D01*
X3073Y13927D01*
X2864Y13656D01*
X2733Y13339D01*
X2689Y13000D01*
X2733Y12661D01*
X2864Y12344D01*
X3073Y12073D01*
X3344Y11864D01*
X3661Y11733D01*
X4000Y11689D01*
X4339Y11733D01*
X4656Y11864D01*
X4927Y12073D01*
X5136Y12344D01*
X5267Y12661D01*
X5311Y13000D01*
X5267Y13339D01*
X5136Y13656D01*
X4927Y13927D01*
X4656Y14136D01*
X4339Y14267D01*
X4000Y14311D01*
D02*
G37*
G36*
X21265Y3160D02*
X20965Y3120D01*
X20685Y3005D01*
X20445Y2820D01*
X20260Y2580D01*
X20145Y2300D01*
X20105Y2000D01*
X20145Y1700D01*
X20260Y1420D01*
X20445Y1180D01*
X20685Y995D01*
X20965Y880D01*
X21265Y840D01*
X21565Y880D01*
X21845Y995D01*
X22085Y1180D01*
X22270Y1420D01*
X22385Y1700D01*
X22425Y2000D01*
X22385Y2300D01*
X22270Y2580D01*
X22085Y2820D01*
X21845Y3005D01*
X21565Y3120D01*
X21265Y3160D01*
D02*
G37*
G36*
X23805Y3160D02*
X23505Y3120D01*
X23225Y3005D01*
X22985Y2820D01*
X22800Y2580D01*
X22685Y2300D01*
X22645Y2000D01*
X22685Y1700D01*
X22800Y1420D01*
X22985Y1180D01*
X23225Y995D01*
X23505Y880D01*
X23805Y840D01*
X24105Y880D01*
X24385Y995D01*
X24625Y1180D01*
X24810Y1420D01*
X24925Y1700D01*
X24965Y2000D01*
X24925Y2300D01*
X24810Y2580D01*
X24625Y2820D01*
X24385Y3005D01*
X24105Y3120D01*
X23805Y3160D01*
D02*
G37*
G36*
X13645Y3160D02*
X13345Y3120D01*
X13065Y3005D01*
X12825Y2820D01*
X12640Y2580D01*
X12525Y2300D01*
X12485Y2000D01*
X12525Y1700D01*
X12640Y1420D01*
X12825Y1180D01*
X13065Y995D01*
X13345Y880D01*
X13645Y840D01*
X13945Y880D01*
X14225Y995D01*
X14465Y1180D01*
X14650Y1420D01*
X14765Y1700D01*
X14805Y2000D01*
X14765Y2300D01*
X14650Y2580D01*
X14465Y2820D01*
X14225Y3005D01*
X13945Y3120D01*
X13645Y3160D01*
D02*
G37*
G36*
X25845Y1500D02*
X25291D01*
Y1150D01*
X25307Y1072D01*
X25351Y1006D01*
X25417Y962D01*
X25495Y946D01*
X25845D01*
Y1500D01*
D02*
G37*
G36*
X18725Y3160D02*
X18425Y3120D01*
X18145Y3005D01*
X17905Y2820D01*
X17720Y2580D01*
X17605Y2300D01*
X17565Y2000D01*
X17605Y1700D01*
X17720Y1420D01*
X17905Y1180D01*
X18145Y995D01*
X18425Y880D01*
X18725Y840D01*
X19025Y880D01*
X19305Y995D01*
X19545Y1180D01*
X19730Y1420D01*
X19845Y1700D01*
X19885Y2000D01*
X19845Y2300D01*
X19730Y2580D01*
X19545Y2820D01*
X19305Y3005D01*
X19025Y3120D01*
X18725Y3160D01*
D02*
G37*
G36*
X16185D02*
X15885Y3120D01*
X15605Y3005D01*
X15365Y2820D01*
X15180Y2580D01*
X15065Y2300D01*
X15025Y2000D01*
X15065Y1700D01*
X15180Y1420D01*
X15365Y1180D01*
X15605Y995D01*
X15885Y880D01*
X16185Y840D01*
X16485Y880D01*
X16765Y995D01*
X17005Y1180D01*
X17190Y1420D01*
X17305Y1700D01*
X17345Y2000D01*
X17305Y2300D01*
X17190Y2580D01*
X17005Y2820D01*
X16765Y3005D01*
X16485Y3120D01*
X16185Y3160D01*
D02*
G37*
G36*
X19500Y17500D02*
X18044D01*
Y17500D01*
X18068Y17317D01*
X18139Y17147D01*
X18251Y17001D01*
X18397Y16889D01*
X18567Y16818D01*
X18750Y16794D01*
X19500D01*
Y17500D01*
D02*
G37*
G36*
X24500Y14092D02*
Y13500D01*
X25092D01*
X25048Y13605D01*
X24856Y13856D01*
X24605Y14048D01*
X24500Y14092D01*
D02*
G37*
G36*
X23500Y14092D02*
X23395Y14048D01*
X23144Y13856D01*
X22952Y13605D01*
X22908Y13500D01*
X23500D01*
Y14092D01*
D02*
G37*
G36*
X21250Y19206D02*
X20500D01*
Y18500D01*
X21956D01*
Y18500D01*
X21932Y18683D01*
X21861Y18853D01*
X21749Y18999D01*
X21603Y19111D01*
X21433Y19182D01*
X21250Y19206D01*
D02*
G37*
G36*
X19500D02*
X18750D01*
X18567Y19182D01*
X18397Y19111D01*
X18251Y18999D01*
X18139Y18853D01*
X18068Y18683D01*
X18044Y18500D01*
Y18500D01*
X19500D01*
Y19206D01*
D02*
G37*
G36*
X21956Y17500D02*
X20500D01*
Y16794D01*
X21250D01*
X21433Y16818D01*
X21603Y16889D01*
X21749Y17001D01*
X21861Y17147D01*
X21932Y17317D01*
X21956Y17500D01*
Y17500D01*
D02*
G37*
G36*
X23500Y12500D02*
X22908D01*
X22952Y12395D01*
X23144Y12144D01*
X23395Y11952D01*
X23500Y11908D01*
Y12500D01*
D02*
G37*
G36*
X28000Y14311D02*
X27661Y14267D01*
X27344Y14136D01*
X27073Y13927D01*
X26864Y13656D01*
X26733Y13339D01*
X26689Y13000D01*
X26733Y12661D01*
X26864Y12344D01*
X27073Y12073D01*
X27344Y11864D01*
X27661Y11733D01*
X28000Y11689D01*
X28339Y11733D01*
X28656Y11864D01*
X28927Y12073D01*
X29136Y12344D01*
X29267Y12661D01*
X29311Y13000D01*
X29267Y13339D01*
X29136Y13656D01*
X28927Y13927D01*
X28656Y14136D01*
X28339Y14267D01*
X28000Y14311D01*
D02*
G37*
G36*
X20000D02*
X19661Y14267D01*
X19344Y14136D01*
X19073Y13927D01*
X18864Y13656D01*
X18733Y13339D01*
X18689Y13000D01*
X18733Y12661D01*
X18864Y12344D01*
X19073Y12073D01*
X19344Y11864D01*
X19661Y11733D01*
X20000Y11689D01*
X20339Y11733D01*
X20656Y11864D01*
X20927Y12073D01*
X21136Y12344D01*
X21267Y12661D01*
X21311Y13000D01*
X21267Y13339D01*
X21136Y13656D01*
X20927Y13927D01*
X20656Y14136D01*
X20339Y14267D01*
X20000Y14311D01*
D02*
G37*
G36*
X16000D02*
X15661Y14267D01*
X15344Y14136D01*
X15073Y13927D01*
X14864Y13656D01*
X14733Y13339D01*
X14689Y13000D01*
X14733Y12661D01*
X14864Y12344D01*
X15073Y12073D01*
X15344Y11864D01*
X15661Y11733D01*
X16000Y11689D01*
X16339Y11733D01*
X16656Y11864D01*
X16927Y12073D01*
X17136Y12344D01*
X17267Y12661D01*
X17311Y13000D01*
X17267Y13339D01*
X17136Y13656D01*
X16927Y13927D01*
X16656Y14136D01*
X16339Y14267D01*
X16000Y14311D01*
D02*
G37*
G36*
X25092Y12500D02*
X24500D01*
Y11908D01*
X24605Y11952D01*
X24856Y12144D01*
X25048Y12395D01*
X25092Y12500D01*
D02*
G37*
G36*
X37000Y14306D02*
X35000D01*
X34883Y14283D01*
X34784Y14216D01*
X34717Y14117D01*
X34694Y14000D01*
Y12000D01*
X34717Y11883D01*
X34784Y11784D01*
X34883Y11717D01*
X35000Y11694D01*
X37000D01*
X37117Y11717D01*
X37216Y11784D01*
X37283Y11883D01*
X37306Y12000D01*
Y14000D01*
X37283Y14117D01*
X37216Y14216D01*
X37117Y14283D01*
X37000Y14306D01*
D02*
G37*
G36*
X32000Y14311D02*
X31661Y14267D01*
X31344Y14136D01*
X31073Y13927D01*
X30864Y13656D01*
X30733Y13339D01*
X30689Y13000D01*
X30733Y12661D01*
X30864Y12344D01*
X31073Y12073D01*
X31344Y11864D01*
X31661Y11733D01*
X32000Y11689D01*
X32339Y11733D01*
X32656Y11864D01*
X32927Y12073D01*
X33136Y12344D01*
X33267Y12661D01*
X33311Y13000D01*
X33267Y13339D01*
X33136Y13656D01*
X32927Y13927D01*
X32656Y14136D01*
X32339Y14267D01*
X32000Y14311D01*
D02*
G37*
%LPD*%
D10*
X13645Y2000D02*
D03*
X21265Y2000D02*
D03*
X23805Y2000D02*
D03*
X18725Y2000D02*
D03*
X16185D02*
D03*
D11*
X26345Y2000D02*
D03*
D12*
X4000Y13000D02*
D03*
X8000D02*
D03*
X12000D02*
D03*
X20000D02*
D03*
X24000D02*
D03*
X32000D02*
D03*
X28000D02*
D03*
X16000D02*
D03*
D13*
X36000Y13000D02*
D03*
D14*
X20000Y18000D02*
D03*
D15*
X26800Y6500D02*
D03*
X34300Y8926D02*
D03*
X26904Y9563D02*
D03*
X24300Y8926D02*
D03*
M02*
