G04 Layer_Physical_Order=2*
G04 Layer_Color=16711680*
%FSLAX43Y43*%
%MOMM*%
G71*
G01*
G75*
%ADD10C,1.700*%
%ADD11R,1.700X1.700*%
%ADD12C,2.000*%
%ADD13R,2.000X2.000*%
G04:AMPARAMS|DCode=14|XSize=3.5mm|YSize=2mm|CornerRadius=0.5mm|HoleSize=0mm|Usage=FLASHONLY|Rotation=180.000|XOffset=0mm|YOffset=0mm|HoleType=Round|Shape=RoundedRectangle|*
%AMROUNDEDRECTD14*
21,1,3.500,1.000,0,0,180.0*
21,1,2.500,2.000,0,0,180.0*
1,1,1.000,-1.250,0.500*
1,1,1.000,1.250,0.500*
1,1,1.000,1.250,-0.500*
1,1,1.000,-1.250,-0.500*
%
%ADD14ROUNDEDRECTD14*%
%ADD15C,0.700*%
%ADD16C,0.500*%
%ADD17C,0.300*%
G04:AMPARAMS|DCode=18|XSize=1.21mm|YSize=1.46mm|CornerRadius=0.151mm|HoleSize=0mm|Usage=FLASHONLY|Rotation=270.000|XOffset=0mm|YOffset=0mm|HoleType=Round|Shape=RoundedRectangle|*
%AMROUNDEDRECTD18*
21,1,1.210,1.157,0,0,270.0*
21,1,0.907,1.460,0,0,270.0*
1,1,0.302,-0.579,-0.454*
1,1,0.302,-0.579,0.454*
1,1,0.302,0.579,0.454*
1,1,0.302,0.579,-0.454*
%
%ADD18ROUNDEDRECTD18*%
G04:AMPARAMS|DCode=19|XSize=0.61mm|YSize=1.26mm|CornerRadius=0.076mm|HoleSize=0mm|Usage=FLASHONLY|Rotation=270.000|XOffset=0mm|YOffset=0mm|HoleType=Round|Shape=RoundedRectangle|*
%AMROUNDEDRECTD19*
21,1,0.610,1.107,0,0,270.0*
21,1,0.458,1.260,0,0,270.0*
1,1,0.152,-0.554,-0.229*
1,1,0.152,-0.554,0.229*
1,1,0.152,0.554,0.229*
1,1,0.152,0.554,-0.229*
%
%ADD19ROUNDEDRECTD19*%
G04:AMPARAMS|DCode=20|XSize=1.21mm|YSize=1.46mm|CornerRadius=0.151mm|HoleSize=0mm|Usage=FLASHONLY|Rotation=0.000|XOffset=0mm|YOffset=0mm|HoleType=Round|Shape=RoundedRectangle|*
%AMROUNDEDRECTD20*
21,1,1.210,1.157,0,0,0.0*
21,1,0.907,1.460,0,0,0.0*
1,1,0.302,0.454,-0.579*
1,1,0.302,-0.454,-0.579*
1,1,0.302,-0.454,0.579*
1,1,0.302,0.454,0.579*
%
%ADD20ROUNDEDRECTD20*%
G04:AMPARAMS|DCode=21|XSize=1.53mm|YSize=1.02mm|CornerRadius=0.128mm|HoleSize=0mm|Usage=FLASHONLY|Rotation=180.000|XOffset=0mm|YOffset=0mm|HoleType=Round|Shape=RoundedRectangle|*
%AMROUNDEDRECTD21*
21,1,1.530,0.765,0,0,180.0*
21,1,1.275,1.020,0,0,180.0*
1,1,0.255,-0.637,0.383*
1,1,0.255,0.637,0.383*
1,1,0.255,0.637,-0.383*
1,1,0.255,-0.637,-0.383*
%
%ADD21ROUNDEDRECTD21*%
D10*
X13645Y2000D02*
D03*
X21265Y2000D02*
D03*
X23805Y2000D02*
D03*
X18725Y2000D02*
D03*
X16185D02*
D03*
D11*
X26345Y2000D02*
D03*
D12*
X4000Y13000D02*
D03*
X8000D02*
D03*
X12000D02*
D03*
X20000D02*
D03*
X24000D02*
D03*
X32000D02*
D03*
X28000D02*
D03*
X16000D02*
D03*
D13*
X36000Y13000D02*
D03*
D14*
X20000Y18000D02*
D03*
D15*
X26800Y6500D02*
D03*
X34300Y8926D02*
D03*
X26904Y9563D02*
D03*
X24300Y8926D02*
D03*
D16*
X20600Y14900D02*
G03*
X20000Y13451I1449J-1449D01*
G01*
X22752Y16000D02*
G03*
X20956Y15256I0J-2540D01*
G01*
X38044D02*
G03*
X36248Y16000I-1796J-1796D01*
G01*
X38600Y14160D02*
G03*
X38218Y15082I-1304J0D01*
G01*
X35913Y5550D02*
G03*
X37709Y6294I0J2540D01*
G01*
X37865Y6450D02*
G03*
X38600Y8225I-1775J1775D01*
G01*
X23805Y2000D02*
G03*
X24300Y3195I-1195J1195D01*
G01*
Y5585D02*
G03*
X24335Y5550I35J0D01*
G01*
X20000Y13000D02*
Y13451D01*
X20600Y14900D02*
X20956Y15256D01*
X22752Y16000D02*
X36248D01*
X38600Y8225D02*
Y14160D01*
X38044Y15256D02*
X38218Y15082D01*
X30625Y5550D02*
X35913D01*
X37709Y6294D02*
X37865Y6450D01*
X25900Y5550D02*
X28175D01*
X24300Y3195D02*
Y5585D01*
X24335Y5550D02*
X25900D01*
D17*
X13645Y8303D02*
G03*
X12901Y10099I-2540J0D01*
G01*
X12000Y12052D02*
G03*
X12744Y10256I2540J0D01*
G01*
X16000Y7742D02*
G03*
X16185Y7557I185J0D01*
G01*
X19469Y10019D02*
G03*
X18725Y8223I1796J-1796D01*
G01*
X35300Y11000D02*
G03*
X36000Y11700I0J700D01*
G01*
X24233Y11000D02*
G03*
X22437Y10256I0J-2540D01*
G01*
X21703Y9522D02*
G03*
X21265Y8464I1058J-1058D01*
G01*
X32000Y14250D02*
G03*
X31150Y15100I-850J0D01*
G01*
X23500D02*
G03*
X22200Y13800I0J-1300D01*
G01*
X21458Y12008D02*
G03*
X22200Y13800I-1792J1792D01*
G01*
X25800Y5650D02*
G03*
X25900Y5550I100J0D01*
G01*
X26340Y7450D02*
G03*
X25800Y6910I0J-540D01*
G01*
X30625Y9183D02*
G03*
X30245Y9563I-380J0D01*
G01*
X12744Y10256D02*
X12901Y10099D01*
X12000Y12052D02*
Y13000D01*
X13645Y7557D02*
Y8303D01*
X16000Y7742D02*
Y13000D01*
X18725Y7557D02*
Y8223D01*
X24233Y11000D02*
X35300D01*
X21265Y7557D02*
Y8464D01*
X21703Y9522D02*
X22437Y10256D01*
X36000Y11700D02*
Y13000D01*
X32000Y13000D02*
Y14250D01*
X23500Y15100D02*
X31150D01*
X19469Y10019D02*
X21458Y12008D01*
X21265Y2000D02*
Y5543D01*
X18725Y2000D02*
Y5543D01*
X16185Y2000D02*
Y5543D01*
X13645Y2000D02*
Y5543D01*
X25800Y5650D02*
Y6910D01*
X26340Y7450D02*
X28175D01*
X26800Y6500D02*
X28175D01*
X34300Y7275D02*
Y8926D01*
X26904Y9563D02*
X28555D01*
X24300Y7275D02*
Y8926D01*
X30625Y7450D02*
Y9183D01*
D18*
X34300Y7275D02*
D03*
X34300Y5585D02*
D03*
X24300Y7275D02*
D03*
X24300Y5585D02*
D03*
D19*
X28175Y5550D02*
D03*
X28175Y6500D02*
D03*
X28175Y7450D02*
D03*
X30625Y7450D02*
D03*
X30625Y5550D02*
D03*
D20*
X28555Y9563D02*
D03*
X30245Y9563D02*
D03*
D21*
X21265Y5543D02*
D03*
X21265Y7557D02*
D03*
X18725Y5543D02*
D03*
X18725Y7557D02*
D03*
X16185Y5543D02*
D03*
X16185Y7557D02*
D03*
X13645Y5543D02*
D03*
X13645Y7557D02*
D03*
M02*
